HIERARCHY
ROOT pelvis
{
  OFFSET 0 100 0
  CHANNELS 6 Xposition Yposition Zposition Zrotation Xrotation Yrotation
  JOINT pelvis_right_femur
  {
    OFFSET -10.78128 -3.44521 -0.5502486
    CHANNELS 3 Zrotation Xrotation Yrotation
    JOINT right_femur_tibia
    {
      OFFSET -0.8047443 -44.0398 -0.1307829
      CHANNELS 3 Zrotation Xrotation Yrotation
      JOINT right_tibia_foot
      {
        OFFSET 3.006224 -47.83518 -5
        CHANNELS 3 Zrotation Xrotation Yrotation
        End Site
        {
          OFFSET 0 -5 15
        }
      }
    }
  }
  JOINT pelvis_left_femur
  {
    OFFSET 10.78128 -3.44521 -0.5502486
    CHANNELS 3 Zrotation Xrotation Yrotation
    JOINT left_femur_tibia
    {
      OFFSET 0.8047443 -44.0398 -0.1307829
      CHANNELS 3 Zrotation Xrotation Yrotation
      JOINT left_tibia_foot
      {
        OFFSET -4.370144 -48.10324 -4.275266
        CHANNELS 3 Zrotation Xrotation Yrotation
        End Site
        {
          OFFSET 0 -5 15
        }
      }
    }
  }
  JOINT pelvis_spine1
  {
    OFFSET 0 6.468898 -3.129235
    CHANNELS 3 Zrotation Xrotation Yrotation
    JOINT spine1
    {
      OFFSET 0 23.15396 4.99043
      CHANNELS 3 Zrotation Xrotation Yrotation
      JOINT spine2
      {
        OFFSET 0 20.79997 -5.064912
        CHANNELS 3 Zrotation Xrotation Yrotation
        JOINT neck
        {
          OFFSET 0 14.38658 9.616178
          CHANNELS 3 Zrotation Xrotation Yrotation
          End Site
          {
            OFFSET 0 20 0
          }
        }
      }
      JOINT right_manubrium
      {
        OFFSET -5.722621 16.35077 3.967754
        CHANNELS 3 Zrotation Xrotation Yrotation
        JOINT right_clavicle
        {
          OFFSET -13.16364 1.694482 -4.693211
          CHANNELS 3 Zrotation Xrotation Yrotation
          JOINT right_humerus
          {
            OFFSET -28.5034 -0.3100689 -2.792744
            CHANNELS 3 Zrotation Xrotation Yrotation
            JOINT right_radius
            {
              OFFSET -25.15693 0.02248979 -1.271978
              CHANNELS 3 Zrotation Xrotation Yrotation
              End Site
              {
                OFFSET -15 0 0
              }
            }
          }
        }
      }
      JOINT left_manubrium
      {
        OFFSET 5.722621 16.35077 3.967754
        CHANNELS 3 Zrotation Xrotation Yrotation
        JOINT left_clavicle
        {
          OFFSET 13.16364 1.694482 -4.693211
          CHANNELS 3 Zrotation Xrotation Yrotation
          JOINT left_humerus
          {
            OFFSET 29.39168 -1.063119 -2.237045
            CHANNELS 3 Zrotation Xrotation Yrotation
            JOINT left_radius
            {
              OFFSET 24.59957 -0.9528479 0.9047498
              CHANNELS 3 Zrotation Xrotation Yrotation
              End Site
              {
                OFFSET 15 -0 -0
              }
            }
          }
        }
      }
    }
  }
}
MOTION
Frames: 21
Frame Time: 0.0416666666667
0 103.5113 0 2.180885 -1.189569 0.2731331 1.245723 -10.11499 8.706372 -0 34.33202 -0 -5.278121 -17.91926 -2.31985 -8.036573 10.10134 -23.4892 -0 5.14026 -0 7.677392 -16.16586 26.57041 -4.345765 -5.048118 4.953776 2.03031 9.21384 -7.746598 0.8287967 22.80161 7.188728 3.263779 -23.10338 8.805915 6.375055 -19.75742 11.58193 86.30754 35.94663 -19.79507 -0 0 16.23948 -7.572206 8.239909 4.615717 5.503074 -19.47341 -1.711948 -94.78324 29.74687 22.91509 0 0 -16.02127 3.504318 17.87902 9.546347
0.3370595 103.4972 1.371057 2.033718 -1.04945 0.443774 1.502947 -11.15282 8.537285 -0 33.52771 -0 -5.340511 -17.42511 -2.233706 -7.905753 10.25126 -23.33258 -0 5.20488 -0 7.531058 -16.4668 26.37622 -4.300238 -4.847365 4.905277 2.140602 9.186176 -7.767889 0.8398237 22.67347 7.234069 3.313955 -23.24215 8.831526 6.362149 -19.69284 11.59416 86.28918 35.92544 -19.85631 -0 0 16.10154 -7.600265 8.267187 4.631097 5.588604 -19.49848 -1.751751 -94.68201 29.70558 22.72471 0 0 -16.37812 3.566775 17.74536 9.487979
0.688023 103.4152 2.853474 1.850342 -0.8198675 0.5500118 1.806575 -12.59309 8.244516 -0 31.72857 -0 -5.408185 -16.6153 -1.970808 -7.758361 10.44944 -23.07067 -0 5.349627 -0 7.299892 -16.91447 26.05794 -4.260221 -4.57185 4.871102 2.303842 9.147464 -7.773982 0.8680518 22.47454 7.290787 3.39342 -23.4428 8.865374 6.328692 -19.57768 11.60949 86.27615 35.89383 -19.96622 -0 0 15.87306 -7.638785 8.310477 4.647353 5.741414 -19.54461 -1.80762 -94.51313 29.64515 22.3876 0 0 -16.95901 3.658563 17.55652 9.382384
1.0643 103.2214 4.504027 1.671051 -0.4774066 0.6054582 2.079445 -14.30966 7.803089 -0 28.52683 -0 -5.461993 -15.4307 -1.448021 -7.645037 10.6829 -22.67627 -0 5.634264 -0 6.968367 -17.50344 25.58274 -4.246658 -4.249839 4.878256 2.503184 9.099297 -7.741669 0.9267369 22.20699 7.346496 3.505353 -23.69609 8.905605 6.257051 -19.39281 11.61951 86.29117 35.85152 -20.14229 -0 0 15.53774 -7.685056 8.372587 4.661644 5.97554 -19.63185 -1.867279 -94.25221 29.56909 21.86303 0 0 -17.78439 3.773185 17.31958 9.21992
1.474858 102.8802 6.384366 1.521936 -0.02056253 0.648085 2.277361 -16.13168 7.219763 -0 23.93879 -0 -5.503969 -13.92085 -0.669018 -7.589406 10.94739 -22.13498 -0 6.124461 -0 6.513156 -18.18887 24.91997 -4.257287 -3.919024 4.923349 2.712491 9.043117 -7.672819 1.010733 21.89675 7.396604 3.642504 -23.97926 8.946531 6.140616 -19.1339 11.61042 86.36013 35.79928 -20.3916 -0 0 15.09286 -7.735444 8.456666 4.674371 6.277381 -19.7685 -1.921706 -93.89478 29.47915 21.16429 0 0 -18.7998 3.896208 17.04101 9.016838
1.919019 102.389 8.558401 1.415509 0.5318685 0.7431641 2.393086 -17.80598 6.536606 -0 18.41431 -0 -5.549732 -12.25938 0.278251 -7.586937 11.24789 -21.43798 -0 6.921802 -0 5.890868 -18.86995 24.02652 -4.261191 -3.634782 4.968018 2.89248 8.979192 -7.598437 1.092803 21.59911 7.444482 3.784879 -24.25133 8.975712 5.983963 -18.80881 11.55938 86.51931 35.7395 -20.71468 -0 0 14.54387 -7.784434 8.567794 4.689073 6.600551 -19.94993 -1.966001 -93.4553 29.37606 20.36267 0 0 -19.86129 4.002141 16.72604 8.820754
2.388918 101.7822 11.09007 1.340474 1.152446 0.9673806 2.44831 -19.09475 5.812324 -0 12.56267 -0 -5.625322 -10.63391 1.28275 -7.606618 11.57168 -20.58955 -0 8.142243 -0 5.053246 -19.40838 22.86775 -4.214702 -3.441124 4.973566 3.017194 8.905399 -7.552418 1.147487 21.3544 7.491788 3.912588 -24.48003 8.979049 5.801476 -18.42754 11.4566 86.78962 35.67411 -21.10649 -0 0 13.90049 -7.830216 8.709958 4.709861 6.88678 -20.15625 -2.004573 -92.96665 29.25858 19.54798 0 0 -20.81864 4.067258 16.37866 8.678223
2.873662 101.1383 14.04438 1.246208 1.802706 1.382639 2.499567 -19.74549 5.135904 -0 7.219252 -0 -5.784044 -9.242748 2.206515 -7.569362 11.8594 -19.6105 -0 9.980298 -0 3.930657 -19.57008 21.41183 -4.049369 -3.366345 4.909846 3.085555 8.814567 -7.567522 1.157444 21.16851 7.532637 4.007589 -24.65012 8.937738 5.623284 -17.99572 11.31908 87.16686 35.60503 -21.55801 -0 0 13.17234 -7.879064 8.886636 4.741573 7.052789 -20.33901 -2.059962 -92.49588 29.12209 18.83869 0 0 -21.51231 4.067982 15.99961 8.631738
3.363728 100.5729 17.48252 1.077413 2.430196 2.01586 2.609153 -19.53428 4.597225 -0 3.151197 -0 -6.071001 -8.258723 2.928286 -7.397066 12.01649 -18.53302 -0 12.66374 -0 2.480503 -19.09163 19.65873 -3.702587 -3.422411 4.767983 3.106016 8.704384 -7.659956 1.11172 21.03451 7.558158 4.055012 -24.75139 8.833414 5.480663 -17.51938 11.17701 87.63102 35.53434 -22.05119 -0 0 12.37438 -7.942022 9.100275 4.790189 7.021656 -20.44465 -2.157602 -92.11554 28.96272 18.34726 0 0 -21.81043 3.9857 15.58905 8.712706
3.858532 100.2023 21.43251 0.8264023 2.944904 2.818591 2.793917 -18.35493 4.238107 -0 0.569187 -0 -6.480971 -7.757072 3.414932 -7.095226 11.87476 -17.40741 -0 16.42484 -0 0.7603858 -17.75941 17.69558 -3.170608 -3.583113 4.603791 3.082426 8.599937 -7.786321 1.008536 20.9557 7.560235 4.047306 -24.76246 8.655944 5.386977 -17.01624 11.07 88.14008 35.46527 -22.53534 -0 0 11.54683 -8.035936 9.350026 4.86562 6.77769 -20.44328 -2.303029 -91.87158 28.77786 18.12727 0 0 -21.6898 3.818128 15.15166 8.921013
4.366546 100.1221 25.8623 0.5370376 3.219481 3.636683 3.024437 -16.14717 4.063378 0 -0.695157 0 -6.977479 -7.763293 3.690598 -6.727584 11.17476 -16.29468 -0 21.52952 -0 -1.092651 -15.39761 15.68492 -2.495917 -3.790796 4.525874 3.012582 8.549123 -7.856153 0.8520099 20.94896 7.529572 3.981564 -24.64751 8.398497 5.344271 -16.51721 11.04681 88.62965 35.40421 -22.92569 -0 0 10.75453 -8.186629 9.63293 4.983933 6.34689 -20.32113 -2.48559 -91.79354 28.56305 18.19614 0 0 -21.19838 3.572881 14.69517 9.236245
4.897689 100.3919 30.68693 0.303208 3.161865 4.290881 3.220871 -12.92427 4.023217 0 -1.040676 0 -7.496416 -8.270022 3.818441 -6.356128 9.67657 -15.22375 -0 27.95224 -0 -2.86868 -12.1358 13.85092 -1.778913 -3.975156 4.630084 2.891174 8.588672 -7.795733 0.6597476 21.03783 7.454915 3.868011 -24.38158 8.061396 5.349869 -16.07353 11.1335 89.0167 35.35919 -23.1217 -0 0 10.07328 -8.428233 9.940453 5.165516 5.784661 -20.09822 -2.681726 -91.8655 28.31512 18.51918 0 0 -20.4384 3.270335 14.22924 9.622383
5.46115 101.0011 35.7666 0.2763229 2.698484 4.685852 3.238978 -8.728203 4.015537 0 -1.115721 0 -7.927642 -9.267205 3.910822 -6.043804 7.081813 -14.18995 -0 35.32243 -0 -4.299637 -8.500727 12.46552 -1.20903 -4.040694 5.012325 2.705477 8.746825 -7.541893 0.468554 21.26171 7.31707 3.732668 -23.94352 7.648296 5.400862 -15.77648 11.33573 89.16995 35.34165 -22.97203 -0 0 9.613492 -8.819491 10.25586 5.444719 5.179581 -19.83485 -2.852175 -92.02037 28.03102 19.00871 0 0 -19.57596 2.946007 13.76702 10.02399
6.060557 101.8801 40.93209 0.5578249 1.827645 4.833166 2.975501 -3.673667 3.97443 0 -1.448006 0 -8.175035 -10.69541 4.062785 -5.811258 3.228329 -13.18874 -0 43.01518 -0 -5.233756 -5.063546 11.67778 -0.9388958 -3.929398 5.707155 2.445312 9.023896 -7.074244 0.3108817 21.64061 7.10496 3.599983 -23.3285 7.170606 5.481345 -15.70296 11.63335 88.98209 35.35421 -22.35911 -0 0 9.472927 -9.413539 10.55925 5.852535 4.617198 -19.58548 -2.962166 -92.19103 27.70977 19.58072 0 0 -18.75674 2.631422 13.31949 10.39374
6.690867 102.9245 46.03848 1.142815 0.6844076 4.819347 2.405951 1.978292 3.893344 0 -2.259262 0 -8.178987 -12.37403 4.317754 -5.612336 -1.776525 -12.22754 -0 49.89049 -0 -5.655171 -2.318152 11.50281 -1.016248 -3.668888 6.63162 2.10874 9.366743 -6.451142 0.203058 22.14771 6.826966 3.482692 -22.55727 6.655127 5.5377 -15.89679 11.95769 88.39234 35.37708 -21.22872 -0 0 9.736564 -10.25611 10.82483 6.415459 4.18048 -19.37294 -2.983666 -92.33158 27.35248 20.17958 0 0 -18.07343 2.347284 12.8917 10.70287
7.346661 103.9968 50.9971 1.962218 -0.5362016 4.763464 1.557864 7.900839 3.793769 0 -3.583091 0 -7.905911 -14.08628 4.689691 -5.372016 -7.66235 -11.29965 -0 54.64732 -0 -5.60669 -0.6189971 11.90834 -1.415663 -3.333036 7.649665 1.702177 9.700795 -5.764714 0.1492539 22.72831 6.50371 3.384407 -21.6664 6.136188 5.502385 -16.37708 12.22513 87.37616 35.37328 -19.56889 -0 0 10.47326 -11.38068 11.0243 7.152954 3.939209 -19.19793 -2.898587 -92.41532 26.96305 20.77228 0 0 -17.57477 2.103727 12.48525 10.9387
8.03477 104.9365 55.78357 2.867381 -1.665705 4.753248 0.561079 13.77341 3.711049 0 -5.251982 0 -7.37318 -15.72556 5.158648 -4.993399 -13.97437 -10.33611 -0 56.49686 -0 -5.220114 0.1190597 12.82668 -2.008337 -3.010545 8.631098 1.248173 9.971218 -5.088521 0.1337816 23.30368 6.171067 3.297436 -20.71492 5.650874 5.335743 -17.1088 12.39492 85.98756 35.29843 -17.44725 -0 0 11.68187 -12.7676 11.14004 8.054926 3.898047 -19.03353 -2.724936 -92.45439 26.55477 21.36157 0 0 -17.22026 1.886102 12.09945 11.1231
8.779175 105.5744 60.44191 3.634321 -2.546725 4.796745 -0.3598022 19.25106 3.652471 0 -6.941795 0 -6.634426 -17.27046 5.67618 -4.343293 -20.07778 -9.197527 -0 54.9449 -0 -4.701818 0.3060372 14.17012 -2.578124 -2.798312 9.440026 0.7834848 10.13641 -4.484725 0.1242187 23.76878 5.881207 3.204403 -19.78487 5.242826 5.016794 -18.01635 12.45724 84.33879 35.10715 -14.99199 -0 0 13.31483 -14.35871 11.16308 9.089564 4.012289 -18.8301 -2.50993 -92.49031 26.14916 21.97589 0 0 -16.89642 1.659225 11.73144 11.3071
9.614818 105.7761 65.05528 4.123655 -3.113752 4.851169 -1.058939 24.11829 3.598019 0 -8.352615 0 -5.744293 -18.71202 6.202752 -3.365917 -25.49491 -7.807911 -0 50.16083 -0 -4.185779 0.2604889 15.78981 -2.982346 -2.737613 10.01097 0.3416015 10.18855 -3.988367 0.10171 24.05779 5.666362 3.097387 -18.94238 4.937248 4.567757 -19.02112 12.42212 82.56162 34.77556 -12.36072 -0 0 15.26657 -16.07753 11.09648 10.20632 4.213648 -18.56129 -2.298278 -92.55186 25.76383 22.62966 0 0 -16.49965 1.398043 11.37756 11.53419
10.57621 105.5156 69.711 4.303449 -3.398475 4.866208 -1.510398 28.27702 3.54774 0 -9.170565 0 -4.751123 -20.01142 6.71106 -2.175633 -29.89334 -6.261243 -0 43.09854 -0 -3.703638 0.1130077 17.41945 -3.180397 -2.813263 10.36166 -0.04591953 10.15662 -3.612309 0.07153671 24.14638 5.533795 2.986607 -18.24396 4.741245 4.072983 -20.03724 12.31927 80.81237 34.31033 -9.759963 -0 0 17.34571 -17.82286 10.96024 11.32743 4.40176 -18.23392 -2.131569 -92.64703 25.4139 23.31327 0 0 -15.93316 1.090295 11.03236 11.84189
11.68844 104.8799 74.48772 4.221469 -3.470793 4.799679 -1.78362 31.69454 3.535845 0 -9.124632 0 -3.696422 -21.06761 7.177655 -1.011056 -33.07834 -4.784803 -0 34.98962 -0 -3.244879 -0.1002014 18.82045 -3.208679 -2.999964 10.55117 -0.360388 10.08173 -3.35159 0.05095474 24.04517 5.474901 2.889947 -17.72247 4.6492 3.626206 -20.98161 12.18008 79.23781 33.74408 -7.392571 -0 0 19.35032 -19.49966 10.78387 12.37826 4.492937 -17.86768 -2.035755 -92.77181 25.10929 24.00596 0 0 -15.13805 0.7331523 10.69086 12.25151
